<?xml version="1.0" standalone="no"?>
<!DOCTYPE svg PUBLIC "-//W3C//DTD SVG 20010904//EN"
 "http://www.w3.org/TR/2001/REC-SVG-20010904/DTD/svg10.dtd">
<svg version="1.0" xmlns="http://www.w3.org/2000/svg"
 width="512.000000pt" height="512.000000pt" viewBox="0 0 512.000000 512.000000"
 preserveAspectRatio="xMidYMid meet">
<metadata>
Created by potrace 1.14, written by Peter Selinger 2001-2017
</metadata>
<g transform="translate(0.000000,512.000000) scale(0.100000,-0.100000)"
fill="#000000" stroke="none">
<path d="M2360 5113 c-166 -22 -269 -39 -335 -55 -44 -10 -87 -20 -95 -22 -44
-11 -107 -28 -120 -33 -8 -4 -17 -7 -20 -8 -3 -1 -12 -4 -20 -8 -8 -3 -49 -18
-90 -33 -86 -31 -291 -132 -302 -148 -4 -6 -8 -8 -8 -4 0 14 -303 -189 -330
-221 -3 -3 -22 -19 -42 -34 -66 -49 -221 -210 -330 -342 -18 -21 -41 -47 -50
-56 -9 -10 -14 -19 -12 -22 3 -2 -7 -15 -21 -28 -13 -13 -25 -29 -25 -35 0 -6
-9 -21 -20 -34 -11 -13 -20 -27 -20 -31 0 -4 -6 -14 -13 -21 -44 -49 -227
-437 -227 -482 0 -9 -5 -16 -10 -16 -6 0 -9 -3 -8 -7 2 -10 -13 -75 -20 -88
-6 -10 -10 -23 -16 -55 -1 -8 -5 -22 -9 -30 -7 -16 -37 -161 -41 -195 -1 -11
-4 -24 -7 -30 -3 -5 -5 -22 -4 -37 0 -16 -2 -28 -5 -28 -10 0 -12 -189 -13
-1475 -1 -1198 1 -1313 16 -1341 9 -17 13 -34 10 -38 -4 -3 -1 -6 5 -6 7 0 12
-6 12 -13 0 -19 71 -82 122 -109 l43 -23 2206 0 2205 0 47 24 c26 13 62 39 80
57 36 37 89 122 66 109 -11 -7 -11 -5 1 10 13 16 15 182 15 1357 0 736 -2
1338 -5 1338 -4 0 -5 15 -4 32 1 18 0 37 -4 42 -3 6 -7 28 -8 51 -1 22 -5 51
-8 65 -2 14 -7 41 -10 60 -3 19 -9 46 -12 60 -3 14 -9 43 -14 65 -5 22 -14 54
-20 70 -6 17 -11 30 -10 30 1 0 -1 7 -4 15 -2 8 -10 33 -16 55 -6 22 -15 49
-20 60 -4 11 -18 47 -31 80 -50 133 -207 434 -231 443 -4 2 -8 9 -8 15 0 7 -9
23 -20 37 -11 14 -39 50 -63 82 -66 87 -134 163 -233 262 -95 94 -100 98 -174
156 -24 19 -53 43 -63 52 -11 9 -39 29 -63 44 -24 15 -44 32 -44 36 0 4 -5 8
-11 8 -6 0 -29 13 -52 29 -23 15 -59 36 -79 46 -21 9 -38 21 -38 26 0 5 -3 8
-7 7 -12 -2 -45 13 -75 34 -16 11 -28 16 -28 11 0 -4 -4 -2 -8 5 -5 7 -19 15
-32 17 -13 2 -27 10 -30 16 -4 6 -9 9 -11 8 -3 -3 -81 26 -164 62 -48 20 -157
51 -162 45 -3 -3 -11 -2 -17 3 -15 13 -186 52 -196 46 -5 -3 -11 -1 -14 4 -3
4 -38 12 -78 16 -40 4 -82 10 -93 12 -27 5 -423 10 -455 6z"/>
</g>
</svg>
